PathFileType	4	(X/Y/Z)	OpenSim_Sub05_EMGBaseline_Accel.trc
DataRate	CameraRate	NumFrames	NumMarkers	Units	OrigDataRate	OrigDataStartFrame	OrigNumFrames
100	100	41	8	m	100	4466	11909
Frame#	Time	torso_imu_offset_imu	pelvis_imu_offset_imu	tibia_r_imu_offset_imu	femur_r_imu_offset_imu	tibia_l_imu_offset_imu	femur_l_imu_offset_imu	toes_r_imu_offset_imu	toes_l_imu_offset_imu
				X1	Y1	Z1	X2	Y2	Z2	X3	Y3	Z3	X4	Y4	Z4	X5	Y5	Z5	X6	Y6	Z6	X7	Y7	Z7	X8		Y8	Z8	

4466	44.65000000	9.41315500	2.12620100	5.53886200	9.71076800	-1.57102700	2.86110600	1.97111400	4.16752300	0.78306300	10.16451900	-2.99139400	3.84020000	10.45518400	-1.33508600	-1.80185300	9.16835600	-0.61408100	-0.29054900	-0.96487200	-1.58894800	8.32520300	4.86356500	2.25843200	11.09085200
4467	44.66000000	9.57552800	1.83980700	5.58290400	9.82730200	-1.11072200	2.86309700	1.32761800	3.64114300	-0.03738000	9.68655800	-2.74075800	3.88018600	10.26548100	-1.86385600	-1.97178300	9.33600000	0.21323000	-0.51592600	-1.91673000	-0.92017800	7.58189600	4.79580800	2.33129200	10.94448700
4468	44.67000000	9.56103200	1.71981700	5.63777600	9.84336300	-0.88275500	2.82499600	1.61390700	3.40119900	1.73535300	9.31417600	-2.46676900	3.74861000	9.79388400	-2.00558600	-1.65869500	9.35108800	1.18775600	-0.60941200	-0.88867400	-1.96599100	7.31355100	4.65660200	2.63980900	11.04625100
4469	44.68000000	9.41289300	1.64194900	5.61616000	9.83892200	-0.99750900	2.73032900	1.77961800	3.38841800	2.03306200	8.99229500	-2.18177400	3.63060200	9.59686500	-1.22734800	-1.07683000	9.39752500	1.79473300	-0.65157800	-0.09885900	-2.46169000	7.37822100	4.72440100	2.62925600	10.80782900
4470	44.69000000	9.11495000	1.61072700	5.64183000	9.69144800	-1.23641100	2.65763200	1.68054000	3.93283600	1.35640500	8.60304900	-1.87582100	3.61519200	9.60357500	-0.52565600	-0.74530800	9.47661900	2.23449400	-1.02043700	1.11903100	-2.28369900	7.68332800	4.71646200	2.40809200	10.98508400
4471	44.70000000	8.75567700	1.66966500	5.68038300	9.38325700	-1.47229000	2.65075800	1.73886500	4.77455900	1.20501100	8.28465000	-1.58675900	3.53447900	9.72760100	-0.38796100	-0.46545500	9.52917100	2.10830500	-1.00086300	1.78175200	-1.62564400	8.04992900	4.87327200	2.14951700	10.83231900
4472	44.71000000	8.66870300	1.80352300	5.67967600	9.25044000	-1.77801600	2.56086400	1.99533400	5.63884400	1.32523800	8.02828000	-1.43069200	3.39225100	10.02631600	-0.40747400	-0.19764500	9.32195000	1.76515900	-1.00965600	2.27307300	-1.07720000	8.20538800	4.76214800	2.08201700	11.13457900
4473	44.72000000	8.73330300	1.91392700	5.83606200	9.01363300	-1.77441200	2.52720600	2.19430300	6.15460600	1.45325000	7.91188800	-1.34236200	3.51845900	10.03283600	-0.49251800	-0.15200300	9.43204000	1.45037800	-1.09661600	2.79941300	-0.78436700	8.27590300	4.90930100	1.86610800	11.09775400
4474	44.73000000	8.62547600	1.97662200	5.91045200	9.05290400	-1.76759600	2.55642100	2.48250700	6.23813300	0.95785100	8.00517000	-1.30797600	3.79935200	9.76681000	-0.61981100	-0.35808500	9.52957600	1.28063700	-1.04024000	3.20729800	-0.83946500	8.22714400	5.09171600	1.84275900	11.01850700
4475	44.74000000	8.60203200	2.04103100	5.99558200	9.01251100	-1.73847200	2.50038500	3.03244200	5.71905900	1.02899900	8.14850700	-1.19578600	4.02228800	9.42177600	-1.02651600	-0.61105400	9.27347100	1.30401000	-0.97420000	3.57603900	-0.72109600	8.32549900	5.05347400	1.94159500	10.83979900
4476	44.75000000	8.35149300	2.00572400	5.99716600	9.01547900	-1.59559100	2.48693200	3.36205400	5.01595900	1.13345200	8.16128000	-1.03528800	4.16963900	9.48511800	-1.32322500	-0.87875000	9.25391800	1.34369700	-0.85162400	4.19347800	-0.51328500	8.43148100	5.08047500	1.94867300	11.05825300
4477	44.76000000	8.21679700	1.98323900	6.21046600	8.97009700	-1.50249300	2.56228300	3.39653900	4.58029400	0.95141900	8.03576700	-0.88719000	4.23286900	9.61793900	-1.21408400	-0.80542200	9.42889300	1.46612000	-0.73573400	4.87768300	-0.46558700	8.55153100	4.75147200	2.03927700	11.12994500
4478	44.77000000	8.18892000	2.00991200	6.23319900	8.95699600	-1.54705100	2.60531300	3.40309200	4.19375400	1.19606900	7.84500000	-0.76122500	4.28103900	9.69911900	-0.97025900	-0.75486600	9.47096400	1.65150600	-0.73545400	5.58236200	-0.71410800	8.73513800	4.93367600	2.03460000	11.03116500
4479	44.78000000	8.27934900	2.09161700	6.31802800	8.91595300	-1.51414700	2.55666600	3.55084400	3.96257200	1.75207900	7.53814900	-0.67920800	4.20104300	9.64920300	-0.84416700	-0.62056800	9.38411200	1.63441400	-0.81453000	6.16891500	-0.96031000	9.13353900	5.06288800	2.09055000	10.90743000
4480	44.79000000	8.34130500	2.15744800	6.41381700	8.90660700	-1.57838000	2.55412600	3.90401800	4.33235000	1.96223400	7.16407700	-0.62230200	4.11005300	9.74483200	-0.82758700	-0.35885200	9.37795100	1.57307900	-0.76782000	7.26530200	-1.27939100	9.56863200	4.84411000	1.99186800	11.04320600
4481	44.80000000	8.29306700	2.21629000	6.37057100	8.99419400	-1.65658900	2.46325400	4.54863700	4.95686600	1.63447700	6.80906600	-0.52489100	3.92178600	9.78337600	-1.02614700	-0.35104400	9.41072600	1.53684900	-0.65919100	8.28986700	-1.90974100	10.16482800	4.71911400	2.09743700	11.09686600
4482	44.81000000	8.26740600	2.20722500	6.40250000	9.05085300	-1.73694300	2.36034500	5.38475500	5.44696100	1.80643200	6.46236900	-0.45972700	3.89595600	9.74793200	-1.33330200	-0.22812100	9.43532900	1.35147700	-0.65937900	9.56580200	-3.01169700	10.75292700	4.91719700	1.98529600	10.98559800
4483	44.82000000	8.24170100	2.26423900	6.41497500	9.16609000	-1.78523400	2.33516900	6.29107500	5.76518400	2.30916700	6.27973900	-0.37529000	3.88466300	9.65730600	-1.72693500	-0.27594300	9.48439100	1.23865900	-0.70858600	10.70399600	-4.07524800	10.92540700	4.99162700	1.86454000	10.96935300
4484	44.83000000	8.24918200	2.27840500	6.40228300	9.17849300	-1.74047300	2.25967100	7.26802400	5.75993000	2.35597300	6.31433400	-0.40235000	3.92191100	9.77307800	-1.87303700	-0.21328800	9.57367400	1.05231900	-0.78384900	11.44937400	-4.57582700	10.80799900	4.91167000	1.83548600	11.02160600
4485	44.84000000	8.21128100	2.28351200	6.41774600	9.20496400	-1.83106700	2.19351100	8.25166100	4.95593300	2.20665100	6.49078700	-0.33867800	4.05591000	9.85996600	-1.63357400	-0.34107000	9.51147400	0.91313900	-0.81792600	12.61958000	-4.12509300	10.68643900	4.56318800	1.97889800	11.15207900
4486	44.85000000	8.16736900	2.25456900	6.36959500	9.18208200	-1.82082600	2.12345600	9.66253800	3.75965900	1.69705200	6.64041400	-0.17157600	4.18073400	9.83148100	-1.33660900	-0.47969000	9.57548000	0.72378700	-0.70285400	14.97908400	-3.54001600	10.82233300	4.85428500	2.13249300	11.05184900
4487	44.86000000	8.16162100	2.22042800	6.35923600	9.08791100	-1.81729400	2.04350400	11.68852700	2.86626500	1.33903600	6.67428900	-0.18831800	4.38907100	9.74715200	-1.45500500	-0.66166400	9.71354600	0.60667000	-0.78551600	18.48586600	-3.73464000	10.53683400	5.14344800	2.09424500	10.96510900
4488	44.87000000	8.11712200	2.16139700	6.32009200	8.93347000	-1.76731000	1.95481800	13.53832200	2.32069800	1.24672600	6.66056300	-0.75503500	4.56242700	9.87286600	-1.71380600	-0.71284400	9.56839400	0.61447400	-0.85374400	21.38063100	-5.34967700	8.97105000	5.11764700	1.93841800	10.77891200
4489	44.88000000	8.04912600	2.13924300	6.21702200	8.73413900	-1.79495600	1.81623300	14.31644600	2.06028600	0.59202300	6.75740700	-1.73261500	4.77602800	9.75274900	-1.87540200	-0.78641100	9.60078800	0.88538700	-0.88377500	22.46099500	-5.56902100	6.45770100	4.77394800	2.02531000	11.04519700
4490	44.89000000	8.01189100	2.15918800	6.20091900	8.55409200	-1.93096300	1.79428400	14.35347200	2.67363000	0.62818400	7.23148700	-2.64215800	4.98845200	9.68440600	-1.64753200	-0.83977100	9.61259000	1.37333700	-0.82716100	21.91244400	-3.83607200	4.00924100	4.84539100	2.22645800	11.00118800
4491	44.90000000	8.14492700	2.22722700	6.16216200	8.51074900	-2.19542900	2.10590100	14.01112000	3.54480600	1.27007200	8.27063200	-3.40613500	5.25028500	9.73612300	-0.60806200	-0.62372600	9.36117400	1.82124800	-0.64384400	21.01897600	-0.71342200	1.85068000	4.96639200	2.09187300	10.93909000
4492	44.91000000	8.47436600	2.33239300	6.26166000	8.55134800	-2.40261000	2.55695700	13.39826500	4.74527200	1.51778600	9.68673000	-4.34165600	6.11618800	10.16642000	0.04390200	-0.80378300	9.46048200	2.11242500	-0.63704700	20.76934800	2.46899600	-0.05578500	4.91845700	1.96409700	11.06487300
4493	44.92000000	8.76935200	2.41940100	6.29864500	8.56969000	-2.32736100	2.71142100	13.05501800	6.49388400	-0.40417600	11.60779000	-6.14056600	7.51826600	10.73146700	0.63844800	-0.97216500	9.54403500	2.21504800	-0.85750700	21.12309300	3.63420200	-2.38569200	4.71140000	2.05143100	11.34202800
4494	44.93000000	8.98510500	2.44470200	6.30998500	8.67434500	-2.08376000	2.91769500	11.88100300	6.62574200	-2.70129100	13.08843400	-7.96933700	8.39221500	10.77417200	1.07075200	-0.94791200	9.33940000	2.04800200	-1.03877300	20.71147400	3.49199500	-5.24780100	4.40859800	2.45315300	11.45891100
4495	44.94000000	9.01551800	2.34125300	6.24872200	8.96500300	-1.82867000	2.90784300	9.80298900	4.68411100	-1.86067700	13.59106600	-9.20704600	8.20447200	10.48947900	1.20061100	-1.20892200	9.47147300	1.69545600	-1.13498300	19.70192500	4.22324800	-7.56338400	4.65666300	2.41725200	11.32237900
4496	44.95000000	9.09139800	2.31379900	6.14024700	9.16277100	-1.62745800	2.64304000	8.56098100	2.42965700	-1.33540000	13.32950400	-9.29673000	6.08966400	10.53264500	0.76043100	-1.56039700	9.78675700	1.23790800	-1.25110500	18.67417500	4.74087600	-8.60440600	4.67791200	2.68595600	11.38882500
4497	44.96000000	9.22528600	2.38209200	5.99205200	9.29327600	-1.70244600	2.30878900	8.77744300	0.57179900	-1.77080500	11.66240500	-8.22240900	3.74315700	10.78839900	0.25119700	-1.74680400	9.95883600	1.04674900	-1.72791800	16.58376900	-1.00600600	-11.97457500	4.55006000	2.44172800	11.43798500
4498	44.97000000	9.35248300	2.49749000	5.89349700	9.46121000	-1.99065500	2.08312700	9.57675300	-0.98917400	-1.41058500	9.03115700	-6.34848700	3.69958800	10.79151200	-0.51340200	-1.50826400	9.83251600	1.17325500	-1.88863400	17.80558100	0.31198400	-13.64438800	4.47119300	3.12903700	11.61854000
4499	44.98000000	9.43699800	2.57794800	5.80092300	9.38460700	-2.17509800	1.90918600	10.29280800	-2.12965100	-1.00807500	6.97496800	-4.16279900	4.68898300	10.72511100	-1.10681100	-1.41281800	10.04640400	1.12278000	-1.79277800	19.29654900	7.54426400	-10.93227900	4.70771100	2.34823400	11.55364600
4500	44.99000000	9.49111600	2.51145900	5.75543800	9.23250900	-2.17360600	1.72405900	10.66993400	-2.42223600	0.59176400	6.12189700	-2.75766400	5.63494600	11.01674400	-1.46606400	-1.08325000	10.43416200	1.02938600	-1.43708500	9.18536300	11.44709100	-0.83135300	4.72435800	2.23642300	11.63900300
4501	45.00000000	9.48729600	2.24570400	5.61275500	9.25287300	-2.22718800	1.64639500	10.42270200	-1.07904100	2.04373700	6.22618000	-1.89251900	7.01083200	11.43749100	-1.47198500	-0.67161100	10.63438500	0.83448100	-1.08278200	12.31144300	-2.72250900	13.03509700	4.76883500	2.59245600	11.55283400
4502	45.01000000	9.67112400	1.99966200	5.67667800	9.50888500	-2.05308400	1.97504600	10.47739800	1.02762800	1.88456800	6.99909400	-0.55543300	7.54958500	11.78542100	-1.46891800	-0.54033700	10.72152000	0.75251000	-0.64649400	5.86985800	-10.97016700	18.51184500	4.30910200	3.02223000	12.03665800
4503	45.02000000	10.48585300	1.82753400	6.16917500	9.93180900	-1.72633100	2.49338400	12.24980800	-0.38535100	3.36851000	9.48694500	1.35722000	6.34597700	12.28084100	-0.89945600	-0.15843100	11.18732000	0.86225400	0.01741400	5.57498400	3.21425600	13.18681000	4.17587800	3.01993100	12.14150300
4504	45.03000000	11.97261200	1.85366500	6.66203900	10.89213400	-1.40572800	2.99442900	15.50055500	-5.07163600	8.10838500	11.25185300	2.15747700	1.87751900	12.97375100	0.37766300	0.09262700	11.76912300	0.78148300	0.70819400	10.49696400	3.23611000	11.87938200	4.15770600	2.90051800	12.34682900
4505	45.04000000	13.17467300	1.66493900	6.41332000	12.19110500	-0.94408800	3.30517900	16.13979900	-6.95511100	8.20288700	11.12360100	-0.82651000	-0.57246400	14.22297600	1.59453300	1.03457400	12.60116700	0.87847800	0.46330600	17.99765200	-0.05034600	12.99711800	4.33123300	2.15933400	12.49199000
4506	45.05000000	13.20942200	1.15832000	6.31443800	13.53007600	-0.43416000	3.62523300	14.52779900	-2.04109100	5.34253800	11.17336500	-6.09760800	-0.21902700	15.18095900	2.47872500	2.07262500	12.55757800	1.63147600	0.04523800	11.01321400	-0.73395700	8.56131500	3.79226000	1.93754400	13.06620100
